<svg xmlns="http://www.w3.org/2000/svg" width="23" height="23"><style/><g id="Section 05"><g id="box"><path id="Forma 1" d="M17.23 4.85c.89 0 1.62-.7 1.62-1.59V1.6c0-.89-.73-1.6-1.62-1.6-.9 0-1.62.71-1.62 1.6v1.66c0 .89.72 1.59 1.62 1.59zm5.75-2.09h-3.26v.81c0 1.34-1.1 2.43-2.46 2.43-1.37 0-2.47-1.09-2.47-2.43v-.81H8.21v.81C8.21 4.91 7.11 6 5.75 6 4.39 6 3.28 4.91 3.28 3.57v-.81l-3.29-.04V23h21.37l1.65-.01-.03-20.23zm-1.62 18.62H1.64V8.43h19.72v12.95zM5.72 4.85c.9 0 1.62-.7 1.62-1.59V1.6C7.34.71 6.62 0 5.72 0 4.83 0 4.1.71 4.1 1.6v1.66c0 .89.73 1.59 1.62 1.59zm2.5 5.32h2.59v2.25H8.22v-2.25zm4.19 0H15v2.25h-2.59v-2.25zm3.88 0h2.59v2.25h-2.59v-2.25zm-8.07 3.74h2.59v2.25H8.22v-2.25zm4.19 0H15v2.25h-2.59v-2.25zm3.88 0h2.59v2.25h-2.59v-2.25zm-8.07 3.81h2.59v2.25H8.22v-2.25zM4.1 13.91h2.59v2.25H4.1v-2.25zm0 3.81h2.59v2.25H4.1v-2.25zm8.31 0H15v2.25h-2.59v-2.25zm3.88 0h2.59v2.25h-2.59v-2.25z" fill="#fff"/></g></g></svg>