<svg xmlns="http://www.w3.org/2000/svg" width="18" height="14"><style/><g id="Footer"><path id="Forma 1" d="M18.01 1.66c-.71.3-1.42.48-2.13.55.8-.46 1.34-1.11 1.62-1.95-.73.42-1.51.7-2.34.86C14.43.37 13.53 0 12.47 0c-1.02 0-1.89.35-2.61 1.03-.72.69-1.08 1.53-1.08 2.5 0 .27.03.54.09.81-1.51-.07-2.92-.43-4.25-1.09C3.3 2.6 2.18 1.73 1.26.65c-.34.54-.5 1.14-.5 1.78 0 .6.15 1.17.44 1.68.3.52.7.94 1.2 1.26-.59-.02-1.15-.17-1.67-.45v.05c0 .85.28 1.6.84 2.24.56.65 1.27 1.05 2.12 1.22-.32.08-.64.12-.97.12-.21 0-.44-.02-.7-.05.24.7.68 1.29 1.31 1.74.63.46 1.35.69 2.14.71-1.34 1-2.86 1.51-4.58 1.51-.32 0-.62-.02-.89-.05C1.72 13.47 3.61 14 5.67 14c1.31 0 2.54-.2 3.69-.6 1.15-.4 2.13-.93 2.95-1.59.81-.67 1.51-1.44 2.1-2.31.59-.86 1.03-1.77 1.32-2.71.29-.95.44-1.89.44-2.84 0-.21-.01-.36-.01-.46a7.48 7.48 0 001.85-1.83z" fill="#fff"/></g></svg>